<?xml version="1.0" encoding="UTF-8" standalone="no"?><!DOCTYPE svg PUBLIC "-//W3C//DTD SVG 1.1//EN" "http://www.w3.org/Graphics/SVG/1.1/DTD/svg11.dtd"><svg width="100%" height="100%" viewBox="0 0 567 593" version="1.1" xmlns="http://www.w3.org/2000/svg" xmlns:xlink="http://www.w3.org/1999/xlink" xml:space="preserve" xmlns:serif="http://www.serif.com/" style="fill-rule:evenodd;clip-rule:evenodd;stroke-linejoin:round;stroke-miterlimit:2;"><path d="M372.757,578.323l34.54,-0c1.241,-0 2.032,-0.226 2.709,-0.79c0.564,-0.452 1.016,-1.468 1.467,-2.71l1.468,0l-0,18.174l-1.468,-0c-0.451,-1.242 -0.903,-2.258 -1.467,-2.709c-0.677,-0.565 -1.468,-0.791 -2.709,-0.791l-52.826,0l-0,-1.58c1.241,-0.338 2.144,-0.79 2.709,-1.354c0.564,-0.678 0.79,-1.581 0.79,-2.709l-0,-50.456c-0,-1.129 -0.226,-2.032 -0.79,-2.596c-0.452,-0.565 -1.355,-1.129 -2.709,-1.468l-0,-1.58l21.785,0l-0,1.58c-1.355,0.339 -2.258,0.79 -2.709,1.468c-0.565,0.564 -0.79,1.467 -0.79,2.596l-0,44.925Zm-220.904,-51.924c9.821,0 17.948,2.597 24.495,7.563c7.901,5.983 11.739,14.448 11.739,25.172c-0,10.046 -3.838,18.173 -11.739,24.155c-6.434,5.08 -14.562,7.563 -24.382,7.563c-9.82,-0 -17.947,-2.483 -24.494,-7.563c-7.788,-5.982 -11.739,-14.222 -11.739,-24.607c-0,-10.61 3.951,-18.85 11.739,-24.72c6.547,-4.853 14.674,-7.45 24.381,-7.563Zm156.914,0c9.821,0 17.948,2.597 24.495,7.563c7.901,5.983 11.739,14.448 11.739,25.172c-0,10.046 -3.838,18.173 -11.739,24.155c-6.434,5.08 -14.562,7.563 -24.382,7.563c-9.82,-0 -17.947,-2.483 -24.494,-7.563c-7.788,-5.982 -11.739,-14.222 -11.739,-24.607c-0,-10.61 3.951,-18.85 11.739,-24.72c6.547,-4.853 14.674,-7.45 24.381,-7.563Zm-221.422,0.226l0,57.116c0,1.128 0.226,1.919 0.791,2.596c0.564,0.564 1.467,1.016 2.709,1.354l-0,1.806l-23.479,0l0,-1.806c1.355,-0.338 2.258,-0.79 2.822,-1.354c0.452,-0.677 0.79,-1.468 0.79,-2.596l0,-57.116l-23.365,0c-1.129,0 -2.032,0.339 -2.596,0.79c-0.565,0.565 -1.016,1.468 -1.468,2.822l-1.693,0l0,-19.527l1.693,-0c0.452,1.354 0.903,2.257 1.468,2.822c0.564,0.451 1.467,0.677 2.596,0.677l63.098,-0c1.129,-0 1.919,-0.226 2.596,-0.677c0.564,-0.565 1.016,-1.468 1.355,-2.822l1.806,-0l-0,19.527l-1.806,0c-0.339,-1.354 -0.791,-2.257 -1.355,-2.822c-0.677,-0.451 -1.467,-0.79 -2.596,-0.79l-23.366,0Zm350.228,6.773l-0,50.456c-0,1.128 0.226,2.031 0.79,2.596c0.451,0.564 1.354,1.129 2.709,1.467l-0,1.58l-21.785,0l-0,-1.58c1.241,-0.338 2.144,-0.79 2.709,-1.354c0.564,-0.678 0.79,-1.581 0.79,-2.709l-0,-50.456c-0,-1.129 -0.226,-2.032 -0.79,-2.596c-0.452,-0.565 -1.355,-1.129 -2.709,-1.468l-0,-1.58l21.785,0l-0,1.58c-1.355,0.339 -2.258,0.79 -2.709,1.468c-0.564,0.564 -0.79,1.467 -0.79,2.596Zm-183.352,22.914c3.047,1.354 5.305,2.822 6.772,4.176c2.709,2.709 4.064,6.208 4.064,10.723c-0,5.983 -2.371,10.611 -6.886,13.884c-4.063,2.935 -9.594,4.402 -16.705,4.402l-43.909,0l-0,-1.58c1.241,-0.338 2.144,-0.79 2.709,-1.354c0.564,-0.678 0.79,-1.581 0.79,-2.709l-0,-50.456c-0,-1.129 -0.226,-2.032 -0.79,-2.596c-0.452,-0.565 -1.355,-1.129 -2.709,-1.468l-0,-1.58l43.231,0c7.563,0 13.094,1.355 16.593,4.064c3.725,2.934 5.644,6.772 5.644,11.852c-0,2.934 -0.677,5.305 -1.919,7.224c-1.354,1.806 -3.612,3.612 -6.885,5.418Zm214.68,-7.45l0,34.992c0,1.128 0.339,2.031 0.79,2.596c0.565,0.677 1.468,1.129 2.709,1.467l0,1.58l-20.43,0l-0,-1.58c1.241,-0.338 2.144,-0.79 2.709,-1.354c0.564,-0.678 0.79,-1.581 0.79,-2.709l-0,-50.456c-0,-1.129 -0.226,-2.032 -0.79,-2.596c-0.452,-0.565 -1.355,-1.129 -2.709,-1.468l-0,-1.58l23.704,0l-0,1.58c-1.581,0.339 -2.484,1.129 -2.484,2.145c0,0.903 0.678,1.919 1.806,3.048l33.073,32.847l0,-33.976c0,-1.129 -0.225,-2.032 -0.677,-2.596c-0.564,-0.678 -1.467,-1.129 -2.822,-1.468l0,-1.58l20.544,0l-0,1.58c-1.355,0.339 -2.258,0.79 -2.822,1.468c-0.452,0.564 -0.678,1.467 -0.678,2.596l0,50.456c0,1.128 0.226,2.031 0.678,2.596c0.564,0.564 1.467,1.129 2.822,1.467l-0,1.58l-22.124,0l-0,-1.58c1.58,-0.338 2.37,-1.016 2.37,-2.032c0,-0.451 -0.226,-1.016 -0.564,-1.58c-0.452,-0.451 -1.468,-1.58 -3.048,-3.16l-32.847,-32.283Zm-317.048,-10.723c-6.321,-0 -11.513,2.031 -15.577,6.095c-3.725,3.838 -5.531,8.579 -5.531,14.448c0,5.644 1.806,10.498 5.531,14.335c4.064,4.064 9.256,6.096 15.69,6.096c6.321,-0 11.514,-2.032 15.577,-6.096c3.612,-3.837 5.531,-8.578 5.531,-14.109c0,-6.095 -1.919,-10.949 -5.531,-14.674c-4.063,-3.951 -9.256,-5.982 -15.69,-6.095Zm156.914,-0c-6.321,-0 -11.513,2.031 -15.577,6.095c-3.725,3.838 -5.531,8.579 -5.531,14.448c0,5.644 1.806,10.498 5.531,14.335c4.064,4.064 9.256,6.096 15.69,6.096c6.321,-0 11.514,-2.032 15.577,-6.096c3.612,-3.837 5.531,-8.578 5.531,-14.109c0,-6.095 -1.919,-10.949 -5.531,-14.674c-4.063,-3.951 -9.256,-5.982 -15.69,-6.095Zm-92.924,40.184l23.026,-0c7.337,-0 11.062,-2.709 11.062,-8.127c0,-5.419 -3.725,-8.128 -11.062,-8.128l-23.026,0l-0,16.255Zm-0,-27.429l22.462,-0c3.499,-0 5.982,-0.452 7.45,-1.355c1.467,-0.903 2.257,-2.37 2.257,-4.628c0,-2.144 -0.79,-3.725 -2.257,-4.628c-1.468,-0.903 -3.951,-1.354 -7.45,-1.354l-22.462,-0l-0,11.965Z" style="fill-rule:nonzero;"/><path d="M241.835,151.362l38.165,66.103l-120.762,209.248l407.414,-0l-38.161,66.096l-483.715,-0l197.059,-341.447Z"/><path d="M439.027,345.043l-76.33,0l-120.83,-209.209l-203.706,352.829c-9.069,-15.7 -32.591,-56.449 -38.161,-66.097c17.12,-29.647 212.846,-368.658 241.857,-418.907l197.17,341.384Z" style="fill:#29b24b;"/><path d="M172.701,418.971l38.164,-66.105c24.81,-0 234.422,-0.036 234.422,-0.036l7.17,-0l-203.707,-352.83l76.323,0c-0,0 211.598,366.497 241.856,418.908l-394.228,0.063Z" style="fill:#652e8e;"/></svg>